<?xml version="1.0" encoding="utf-8"?>
<!-- Svg Vector Icons : http://www.onlinewebfonts.com/icon -->
<!DOCTYPE svg PUBLIC "-//W3C//DTD SVG 1.1//EN" "http://www.w3.org/Graphics/SVG/1.1/DTD/svg11.dtd">
<svg version="1.1" xmlns="http://www.w3.org/2000/svg" xmlns:xlink="http://www.w3.org/1999/xlink" x="0px" y="0px" viewBox="0 0 1000 1000" enable-background="new 0 0 1000 1000" xml:space="preserve">
<metadata> Svg Vector Icons : http://www.onlinewebfonts.com/icon </metadata>
<g><g><path d="M402,108c13.5,0,25.1,4.8,34.6,14.4c9.6,9.6,14.4,21.1,14.4,34.6c0,13.8-4.8,25.4-14.5,34.8L177.3,451H941c13.5,0,25.1,4.8,34.6,14.4S990,486.5,990,500s-4.8,25.1-14.4,34.6c-9.6,9.6-21.1,14.4-34.6,14.4H177.3l259.2,259.2c9.7,9.4,14.5,21.1,14.5,34.8c0,13.5-4.8,25.1-14.4,34.6c-9.6,9.6-21.1,14.4-34.6,14.4c-13.8,0-25.4-4.7-34.8-14.2l-343-343C14.7,524.9,10,513.3,10,500c0-13.3,4.7-24.9,14.2-34.8l343-343C376.9,112.7,388.5,108,402,108L402,108z"/></g></g>
</svg>