<svg
    class="svg-icon"
    style="width: 1em; height: 1em;vertical-align: middle;fill: currentColor;overflow: hidden;" 
    viewBox="0 0 1024 1024" version="1.1" xmlns="http://www.w3.org/2000/svg"
>
    <path d="M883.173624 647.752824c24.932856 0 48.898687-3.574409 72.170716-9.023514-10.077519 34.585703-24.190959 67.369364-41.766242 97.990778C835.524394 872.705202 689.200818 964.511117 521.165754 964.511117c-249.912863 0-452.511117-202.598254-452.511117-452.511117S271.252891 59.488883 521.165754 59.488883c18.878976 0 37.368072 1.520633 55.641251 3.764744-13.83817 15.819291-25.974581 33.020044-37.232996 50.843992 11.299347-17.792225 23.413246-35.042097 37.232996-50.843992 36.250622 4.457522 71.066569 13.304004 104.140849 25.810852-69.428256 58.102303-114.530476 144.310733-114.530476 241.930051C566.416354 505.935887 708.23329 647.752824 883.173624 647.752824zM845.222267 736.341464c12.489452 1.231037 25.136493 1.914606 37.95238 1.914606C870.363877 738.255047 857.734232 737.494731 845.222267 736.341464zM475.91413 330.995553c0-72.347748 19.815301-139.67618 52.979632-198.48047-3.321652 5.922896-7.172353 11.497868-10.204409 17.602913-198.779276 1.348718-359.533516 162.786527-359.533516 361.882004 0 199.932542 162.075329 362.008894 362.008894 362.008894 117.444852 0 221.513046-56.174394 287.652396-142.848429C619.451244 696.17158 475.91413 530.489096 475.91413 330.995553z"/>
</svg>